<svg width="182" height="60" viewBox="0 0 182 60" fill="none" xmlns="http://www.w3.org/2000/svg">
<g clip-path="url(#clip0_2_249)">
<path d="M22.2921 0.00671387H23.9017C29.49 0.130085 34.9871 2.41246 38.9353 6.45287C37.4775 7.96417 35.9893 9.41379 34.5619 10.9251C32.3448 8.88946 29.6722 7.31647 26.7566 6.7613C22.4439 5.83601 17.7972 6.66877 14.1831 9.16704C10.2349 11.7887 7.56224 16.2301 6.9852 20.9799C6.34741 25.668 7.65335 30.6028 10.6601 34.2423C13.5453 37.7892 17.9491 40.0099 22.5047 40.1641C26.7566 40.4109 31.1907 39.0846 34.2886 36.062C36.7182 33.9339 37.842 30.6954 38.2064 27.5494C33.1648 27.5494 28.1233 27.5802 23.0817 27.5494V21.1958H44.3109C45.4043 28.012 43.825 35.6919 38.7227 40.5651C35.3212 44.0195 30.6137 46.0551 25.8151 46.4561C21.1684 46.9187 16.3698 46.0243 12.2393 43.7419C7.2889 41.0586 3.3407 36.5247 1.39697 31.1888C-0.425284 26.2848 -0.455655 20.7331 1.24511 15.7983C2.79402 11.2952 5.77036 7.31647 9.59709 4.54061C13.272 1.7956 17.7365 0.2843 22.2921 0.00671387Z" fill="#120D26"/>
<path d="M144.079 1.60913H150.578V45.6528C148.422 45.6528 146.235 45.6836 144.079 45.6219C144.109 30.9715 144.079 16.2903 144.079 1.60913Z" fill="#120D26"/>
<path d="M58.7678 16.8764C62.7768 16.1053 67.1198 16.9689 70.4302 19.4055C73.437 21.5645 75.5325 24.9572 76.1703 28.6583C76.9904 32.9455 75.9577 37.6336 73.2244 41.0263C70.2784 44.82 65.4494 46.8556 60.7419 46.5472C56.4293 46.3005 52.2381 44.1106 49.687 40.5328C46.8017 36.585 46.1032 31.1566 47.6825 26.5302C49.2618 21.5645 53.7263 17.7708 58.7678 16.8764ZM59.679 22.7365C58.0389 23.1683 56.5204 24.1245 55.427 25.4815C52.4811 29.0593 52.6633 34.8886 55.913 38.2196C57.7656 40.1319 60.5597 41.0263 63.1412 40.502C65.5405 40.0702 67.6361 38.4355 68.7902 36.2765C70.7947 32.6062 70.2177 27.548 67.1502 24.6796C65.1761 22.8291 62.2909 22.058 59.679 22.7365Z" fill="#120D26"/>
<path d="M90.9609 16.8763C95.5469 15.9819 100.558 17.2773 103.99 20.5466C109.578 25.6357 110.186 35.1662 105.417 41.0263C102.532 44.7275 97.8551 46.7631 93.2387 46.5472C88.835 46.4238 84.4919 44.2031 81.8801 40.5328C78.9341 36.4924 78.2963 30.9407 79.9667 26.2217C81.6371 21.4102 86.0105 17.7399 90.9609 16.8763ZM91.872 22.7365C90.232 23.1683 88.7135 24.1244 87.6201 25.4507C84.7045 28.9667 84.826 34.7035 87.9542 38.0654C89.8068 40.0702 92.6921 41.0572 95.3647 40.502C97.7336 40.0393 99.8596 38.4355 101.014 36.2765C102.988 32.5754 102.411 27.5171 99.3129 24.6487C97.3388 22.7982 94.4536 22.0579 91.872 22.7365Z" fill="#120D26"/>
<path d="M118.264 18.6652C121.757 16.4445 126.403 15.8277 130.169 17.7399C131.354 18.2642 132.326 19.1587 133.267 20.0531C133.298 19.2204 133.267 18.3568 133.298 17.4932C135.332 17.524 137.367 17.4932 139.433 17.524V44.7274C139.402 48.8295 138.37 53.1784 135.454 56.1701C132.265 59.4703 127.375 60.4881 122.972 59.8096C118.264 59.1002 114.164 55.615 112.342 51.2044C114.164 50.31 116.077 49.6006 117.96 48.7679C119.023 51.297 121.18 53.456 123.883 53.9495C126.586 54.4429 129.714 53.7644 131.475 51.482C133.358 49.138 133.358 45.9303 133.267 43.0619C131.87 44.4499 130.261 45.6836 128.317 46.1462C124.095 47.3491 119.449 45.8686 116.199 42.9694C112.919 40.0702 110.975 35.5979 111.157 31.1566C111.248 26.1292 114.043 21.2868 118.264 18.6652ZM124.551 22.6131C122.698 22.9215 120.967 23.9702 119.783 25.4198C116.928 28.8742 116.928 34.3951 119.813 37.7878C121.453 39.7926 124.095 40.9029 126.646 40.6253C129.046 40.3786 131.263 38.8364 132.447 36.7083C134.452 33.0997 134.118 28.1957 131.415 25.0497C129.744 23.1066 127.072 22.1504 124.551 22.6131Z" fill="#120D26"/>
<path d="M158.384 20.2383C162.028 16.7839 167.647 15.6118 172.324 17.4316C176.758 19.1279 179.583 23.4151 181.01 27.8256C174.419 30.6015 167.859 33.3465 161.269 36.1224C162.18 37.8804 163.577 39.4843 165.46 40.132C168.102 41.0881 171.261 40.7488 173.478 38.9599C174.359 38.2814 175.057 37.3869 175.725 36.5233C177.396 37.6645 179.066 38.7749 180.737 39.9161C178.368 43.5247 174.389 46.0538 170.107 46.4548C165.369 47.0408 160.327 45.1902 157.26 41.4274C152.218 35.5055 152.704 25.5741 158.384 20.2383ZM161.633 25.9442C160.601 27.4555 160.176 29.3061 160.206 31.1258C164.61 29.2753 169.013 27.4247 173.417 25.5433C172.688 23.8161 170.927 22.7674 169.135 22.4898C166.25 21.9655 163.243 23.5385 161.633 25.9442Z" fill="#120D26"/>
</g>
<defs>
<clipPath id="clip0_2_249">
<rect width="181.01" height="60" fill="white"/>
</clipPath>
</defs>
</svg>
