<svg width="245" height="58" viewBox="0 0 245 58" fill="none" xmlns="http://www.w3.org/2000/svg">
<path d="M92.0546 20.4404H86.7251V46.0239H92.0546V35.6522H103.745V46.0239H108.903V20.4404H103.745V30.8121H92.0546V20.4404ZM132.972 35.1336C132.972 39.2823 130.909 41.5295 127.127 41.5295C123.344 41.5295 121.281 39.2823 121.281 34.9608V20.4404H116.124V35.1336C116.124 42.3938 120.078 46.5425 127.127 46.5425C134.175 46.5425 138.129 42.3938 138.129 34.9608V20.4404H132.972V35.1336ZM182.829 20.4404L176.984 38.0723L171.31 20.4404H165.809L174.749 46.0239H179.047L184.892 29.2564L190.565 46.0239H195.035L203.803 20.4404H198.474L192.8 38.0723L186.955 20.4404H182.829ZM222.543 30.2935H213.087V25.1077H226.841V20.4404H207.929V46.0239H227.356V41.3566H213.087V34.9608H222.543V30.2935ZM233.546 20.4404H238.703V46.0239H233.546V20.4404ZM159.963 40.6652L162.198 46.0239H167.7L156.525 20.4404L156.353 20.2676H151.883L140.708 46.0239H146.038L148.273 41.0109L148.445 40.6652H159.963ZM154.118 26.8363L157.728 35.4794L157.9 35.9979H149.992L150.164 35.4794L154.118 26.8363Z" fill="#120D26"/>
<path d="M35.8365 43.4309C35.8365 43.4309 36.0084 43.2581 35.8365 43.2581C27.9281 25.972 17.0971 12.6616 17.0971 12.6616C17.0971 12.6616 11.2517 18.1932 11.5956 23.8976C11.7675 28.2192 15.034 30.6392 15.034 30.6392C20.1916 35.6522 32.57 42.048 35.4926 43.4309H35.8365ZM33.7734 47.7525C33.7734 47.5796 33.4296 47.5796 33.4296 47.5796L12.799 48.271C15.034 52.2469 18.8163 55.3584 22.7705 54.4941C25.5212 53.8026 31.7104 49.4811 33.6015 48.0982C33.9453 47.7525 33.7734 47.7525 33.7734 47.7525ZM34.1172 45.851C34.2892 45.6781 34.1172 45.5053 34.1172 45.5053C25.0054 39.2823 7.46948 29.9478 7.46948 29.9478C5.92219 34.9607 7.98524 38.9365 7.98524 38.9365C10.2202 43.7767 14.5182 45.1595 14.5182 45.1595C16.4094 46.0239 18.4724 46.0239 18.4724 46.0239H33.9453C34.1172 46.0239 34.1172 45.851 34.1172 45.851ZM35.4926 3.67286C34.633 3.67286 32.2261 4.36431 32.2261 4.36431C26.7246 5.7472 25.5212 10.7602 25.5212 10.7602C24.4897 13.8717 25.5212 17.3289 25.5212 17.3289C27.4123 25.4534 36.3522 38.9365 38.2434 41.7023L38.4153 41.8752C38.5872 41.8752 38.5872 41.7023 38.5872 41.7023C41.6818 11.4516 35.4926 3.67286 35.4926 3.67286ZM42.3695 41.7023C42.5414 41.7023 42.7133 41.5295 42.7133 41.5295C44.7764 38.5908 53.5443 25.2805 55.4355 17.156C55.4355 17.156 56.467 13.1802 55.4355 10.5873C55.4355 10.5873 54.0601 5.57433 48.5586 4.19144C48.5586 4.19144 47.0113 3.84572 45.2921 3.5C45.2921 3.5 39.103 11.4516 42.1975 41.3566C42.1975 41.7023 42.3695 41.7023 42.3695 41.7023ZM47.1832 47.5796C47.1832 47.5796 47.0113 47.5796 47.0113 47.7525V48.0982C49.0744 49.4811 54.9197 53.8026 57.8424 54.4941C57.8424 54.4941 63.1719 56.3955 67.8138 48.271L47.1832 47.5796ZM73.4872 29.7749C73.4872 29.7749 55.9512 39.2823 46.8394 45.5053C46.8394 45.5053 46.6675 45.6781 46.6675 45.851C46.6675 45.851 46.6675 46.0239 46.8394 46.0239H62.6561C62.6561 46.0239 64.2034 46.0239 66.2665 45.1595C66.2665 45.1595 70.5645 43.7767 72.9714 38.7637C72.9714 38.5908 75.0345 34.615 73.4872 29.7749ZM45.1202 43.4309C45.1202 43.4309 45.2921 43.6038 45.464 43.4309C48.3867 41.8752 60.765 35.6522 65.9226 30.6392C65.9226 30.6392 69.1891 28.0463 69.3611 23.8976C69.7049 18.0203 63.8596 12.6616 63.8596 12.6616C63.8596 12.6616 53.0286 25.6262 45.1202 43.0852C45.1202 43.0852 44.9483 43.2581 45.1202 43.4309Z" fill="#120D26"/>
</svg>
