<svg width="257" height="55" viewBox="0 0 257 55" fill="none" xmlns="http://www.w3.org/2000/svg">
<g clip-path="url(#clip0_2_265)">
<path d="M256.596 24.8823V20.3539H250.993V13.314L250.804 13.3723L245.541 14.9883L245.437 15.02V20.3541H237.129V17.3825C237.129 15.9989 237.437 14.94 238.045 14.2339C238.648 13.5362 239.512 13.1815 240.612 13.1815C241.404 13.1815 242.223 13.3685 243.048 13.7374L243.254 13.8301V9.06112L243.157 9.02525C242.388 8.74777 241.342 8.60803 240.045 8.60803C238.41 8.60803 236.925 8.96497 235.63 9.67237C234.334 10.3808 233.314 11.3921 232.6 12.6778C231.889 13.9621 231.527 15.4454 231.527 17.0869V20.3539H227.625V24.8823H231.527V43.9594H237.129V24.8823H245.437V37.0055C245.437 41.9984 247.784 44.5286 252.412 44.5286C253.173 44.5286 253.973 44.4392 254.791 44.2641C255.623 44.0842 256.189 43.9046 256.523 43.7128L256.597 43.669V39.0988L256.369 39.25C256.065 39.4532 255.686 39.6194 255.242 39.7429C254.797 39.8687 254.424 39.9317 254.136 39.9317C253.052 39.9317 252.249 39.6385 251.752 39.0599C251.248 38.4761 250.993 37.4551 250.993 36.0268V24.8823H256.596ZM215.116 39.9325C213.083 39.9325 211.48 39.256 210.35 37.9233C209.214 36.584 208.638 34.6745 208.638 32.2484C208.638 29.7454 209.214 27.7863 210.351 26.4233C211.481 25.0693 213.069 24.3821 215.07 24.3821C217.013 24.3821 218.559 25.0384 219.667 26.3339C220.78 27.6361 221.345 29.5795 221.345 32.1117C221.345 34.675 220.813 36.644 219.766 37.9612C218.726 39.2684 217.161 39.9325 215.116 39.9325ZM215.365 19.7852C211.486 19.7852 208.405 20.9258 206.209 23.1753C204.013 25.425 202.9 28.5383 202.9 32.4295C202.9 36.1255 203.987 39.0983 206.13 41.2641C208.273 43.4306 211.19 44.5281 214.798 44.5281C218.558 44.5281 221.578 43.3716 223.773 41.091C225.969 38.8128 227.081 35.7289 227.081 31.9286C227.081 28.1749 226.037 25.1799 223.978 23.0286C221.917 20.8762 219.019 19.7852 215.365 19.7852ZM193.869 19.7852C191.23 19.7852 189.048 20.4625 187.38 21.7978C185.703 23.1411 184.852 24.9029 184.852 27.0348C184.852 28.143 185.036 29.1274 185.397 29.9623C185.761 30.8 186.323 31.5376 187.071 32.1565C187.813 32.7705 188.958 33.4137 190.476 34.068C191.752 34.5948 192.703 35.0404 193.308 35.3916C193.898 35.7359 194.318 36.0819 194.554 36.4189C194.784 36.7487 194.901 37.2 194.901 37.757C194.901 39.3429 193.718 40.1145 191.282 40.1145C190.379 40.1145 189.349 39.9252 188.22 39.5521C187.099 39.1846 186.042 38.6465 185.084 37.9565L184.851 37.7891V43.201L184.937 43.2408C185.729 43.608 186.729 43.9176 187.907 44.1612C189.082 44.405 190.15 44.5291 191.078 44.5291C193.941 44.5291 196.247 43.8486 197.929 42.5053C199.623 41.1527 200.481 39.3494 200.481 37.1437C200.481 35.5526 200.019 34.1881 199.108 33.0876C198.204 31.9961 196.634 30.9941 194.445 30.1083C192.701 29.4059 191.584 28.8228 191.123 28.3752C190.679 27.9428 190.453 27.3313 190.453 26.5569C190.453 25.8704 190.732 25.3204 191.303 24.875C191.88 24.4274 192.682 24.1998 193.687 24.1998C194.621 24.1998 195.576 24.3477 196.525 24.6377C197.474 24.9276 198.308 25.3159 199.003 25.7909L199.232 25.9478V20.8142L199.144 20.7763C198.503 20.5001 197.656 20.2637 196.628 20.0719C195.605 19.8814 194.676 19.7852 193.869 19.7852ZM170.249 39.9325C168.216 39.9325 166.613 39.256 165.483 37.9233C164.346 36.584 163.772 34.675 163.772 32.2484C163.772 29.7454 164.347 27.7863 165.485 26.4233C166.614 25.0693 168.201 24.3821 170.204 24.3821C172.146 24.3821 173.692 25.0384 174.799 26.3339C175.913 27.6361 176.477 29.5795 176.477 32.1117C176.477 34.675 175.946 36.644 174.899 37.9612C173.858 39.2684 172.295 39.9325 170.249 39.9325ZM170.499 19.7852C166.619 19.7852 163.537 20.9258 161.342 23.1753C159.147 25.425 158.033 28.5383 158.033 32.4295C158.033 36.1269 159.12 39.0983 161.263 41.2641C163.406 43.4306 166.323 44.5281 169.931 44.5281C173.691 44.5281 176.711 43.3716 178.907 41.091C181.102 38.8128 182.215 35.7289 182.215 31.9286C182.215 28.1749 181.171 25.1799 179.111 23.0286C177.05 20.8762 174.152 19.7852 170.499 19.7852ZM149.53 24.4419V20.3539H143.997V43.9589H149.53V31.884C149.53 29.8308 149.994 28.144 150.909 26.87C151.813 25.6111 153.017 24.9732 154.488 24.9732C154.986 24.9732 155.546 25.0556 156.152 25.2188C156.751 25.3809 157.186 25.557 157.442 25.7423L157.675 25.9115V20.3135L157.585 20.2749C157.07 20.0552 156.341 19.9444 155.418 19.9444C154.028 19.9444 152.783 20.3927 151.718 21.2755C150.782 22.0514 150.106 23.1152 149.589 24.4419H149.53ZM134.087 19.7852C131.549 19.7852 129.285 20.3315 127.359 21.4083C125.429 22.4875 123.936 24.0284 122.921 25.9877C121.91 27.9423 121.396 30.2254 121.396 32.7715C121.396 35.0018 121.894 37.0486 122.878 38.8524C123.862 40.6593 125.255 42.0729 127.018 43.0533C128.779 44.0324 130.814 44.5288 133.068 44.5288C135.697 44.5288 137.943 44.0013 139.743 42.9608L139.815 42.919V37.8319L139.583 38.0023C138.767 38.5984 137.856 39.0741 136.876 39.4169C135.898 39.7594 135.006 39.9325 134.224 39.9325C132.053 39.9325 130.31 39.2507 129.045 37.9067C127.777 36.5609 127.134 34.671 127.134 32.293C127.134 29.9001 127.804 27.9617 129.126 26.5314C130.443 25.1054 132.189 24.3821 134.316 24.3821C136.134 24.3821 137.907 25.0001 139.583 26.2206L139.815 26.3897V21.0297L139.74 20.9873C139.109 20.6329 138.249 20.3402 137.18 20.1183C136.117 19.8968 135.076 19.7852 134.087 19.7852ZM117.585 20.3541H112.052V43.9589H117.585V20.3541ZM114.875 10.2983C113.965 10.2983 113.17 10.6094 112.518 11.2259C111.863 11.8441 111.53 12.6225 111.53 13.5412C111.53 14.4453 111.859 15.2095 112.508 15.8113C113.153 16.4114 113.949 16.7155 114.876 16.7155C115.802 16.7155 116.602 16.4114 117.254 15.8123C117.911 15.2095 118.244 14.4456 118.244 13.5412C118.244 12.6547 117.92 11.8842 117.281 11.2508C116.643 10.6186 115.833 10.2983 114.875 10.2983ZM101.069 18.6125V43.9589H106.716V11.0209H98.9007L88.9664 35.4863L79.3258 11.0209H71.1919V43.9587H76.4986V18.61H76.6808L86.861 43.9589H90.8658L100.887 18.6125H101.069Z" fill="#120D26"/>
<path d="M26.0304 26.1351H0V0.0140381H26.0304V26.1351Z" fill="#120D26"/>
<path d="M54.7706 26.1351H28.7407V0.0140381H54.7706V26.1351Z" fill="#120D26"/>
<path d="M26.0296 54.9859H0V28.8651H26.0296V54.9859Z" fill="#120D26"/>
<path d="M54.7706 54.9859H28.7407V28.8651H54.7706V54.9859Z" fill="#120D26"/>
</g>
<defs>
<clipPath id="clip0_2_265">
<rect width="256.597" height="55" fill="white"/>
</clipPath>
</defs>
</svg>
