<svg width="183" height="51" viewBox="0 0 183 51" fill="none" xmlns="http://www.w3.org/2000/svg">
<g clip-path="url(#clip0_2_256)">
<path d="M0 12.4153H10.8872L17.2268 28.7142L23.6486 12.4153H34.2491L18.287 51H7.61934L11.9887 40.7757L0 12.4153Z" fill="#120D26"/>
<path d="M45.2923 11.7665C37.1122 11.7665 31.9409 19.1389 31.9409 26.4806C31.9409 34.7422 37.6105 41.2922 45.1371 41.2922C50.7516 41.2922 52.8685 37.8546 52.8685 37.8546V40.5324H62.3643V12.4155H52.8685V14.9716C52.8685 14.9716 50.5067 11.7665 45.2923 11.7665ZM47.3121 20.8022C51.0864 20.8022 53.0341 23.8034 53.0341 26.5115C53.0341 29.4276 50.9474 32.2893 47.3121 32.2893C44.2991 32.2893 41.5763 29.8149 41.5763 26.6356C41.5763 23.4113 43.7664 20.8022 47.3121 20.8022Z" fill="#120D26"/>
<path d="M65.6343 40.5322V0H75.5663V15.0689C75.5663 15.0689 77.9254 11.7699 82.8662 11.7699C88.9098 11.7699 92.4507 16.2951 92.4507 22.7613V40.5322H82.5914V25.1957C82.5914 23.0074 81.5541 20.8934 79.2045 20.8934C76.8128 20.8934 75.5663 23.0394 75.5663 25.1957V40.5322H65.6343Z" fill="#120D26"/>
<path d="M109.384 11.7698C100.017 11.7698 94.4385 18.9281 94.4385 26.5976C94.4385 35.3255 101.192 41.2922 109.42 41.2922C117.394 41.2922 124.372 35.5963 124.372 26.744C124.372 17.0579 117.066 11.7698 109.384 11.7698ZM109.474 20.8849C112.783 20.8849 115.072 23.6545 115.072 26.608C115.072 29.1271 112.939 32.2342 109.474 32.2342C106.299 32.2342 103.916 29.6747 103.916 26.5804C103.916 23.5997 105.897 20.8849 109.474 20.8849Z" fill="#120D26"/>
<path d="M140.918 11.7698C131.551 11.7698 125.973 18.9281 125.973 26.5976C125.973 35.3255 132.726 41.2922 140.954 41.2922C148.928 41.2922 155.906 35.5963 155.906 26.744C155.906 17.0579 148.6 11.7698 140.918 11.7698ZM141.008 20.8849C144.317 20.8849 146.606 23.6545 146.606 26.608C146.606 29.1271 144.473 32.2342 141.008 32.2342C137.833 32.2342 135.45 29.6747 135.45 26.5804C135.45 23.5997 137.431 20.8849 141.008 20.8849Z" fill="#120D26"/>
<path d="M163.744 41.1292C167.386 41.1292 170.339 38.1618 170.339 34.5015C170.339 30.8411 167.386 27.8738 163.744 27.8738C160.101 27.8738 157.148 30.8411 157.148 34.5015C157.148 38.1618 160.101 41.1292 163.744 41.1292Z" fill="#120D26"/>
<path d="M172.506 25.4391H160.633L171.17 0H182.999L172.506 25.4391Z" fill="#120D26"/>
</g>
<defs>
<clipPath id="clip0_2_256">
<rect width="182.999" height="51" fill="white"/>
</clipPath>
</defs>
</svg>
